<svg width="20" height="20" viewBox="0 0 20 20" fill="none" xmlns="http://www.w3.org/2000/svg">
<path d="M7.72743 7H2.27288C1.57106 7 1.00015 6.41125 1.00015 5.6875V2.3125C1.00015 1.58875 1.57106 1 2.27288 1H7.72743C8.42924 1 9.00015 1.58875 9.00015 2.3125V5.6875C9.00015 6.41125 8.42924 7 7.72743 7ZM2.27288 2.125C2.17252 2.125 2.09106 2.209 2.09106 2.3125V5.6875C2.09106 5.791 2.17252 5.875 2.27288 5.875H7.72743C7.82779 5.875 7.90924 5.791 7.90924 5.6875V2.3125C7.90924 2.209 7.82779 2.125 7.72743 2.125H2.27288Z" fill="#656864"/>
<path d="M7.72743 19H2.27288C1.57106 19 1.00015 18.4393 1.00015 17.75V10.25C1.00015 9.56071 1.57106 9 2.27288 9H7.72743C8.42924 9 9.00015 9.56071 9.00015 10.25V17.75C9.00015 18.4393 8.42924 19 7.72743 19ZM2.27288 10.0714C2.17252 10.0714 2.09106 10.1514 2.09106 10.25V17.75C2.09106 17.8486 2.17252 17.9286 2.27288 17.9286H7.72743C7.82779 17.9286 7.90924 17.8486 7.90924 17.75V10.25C7.90924 10.1514 7.82779 10.0714 7.72743 10.0714H2.27288Z" fill="#656864"/>
<path d="M17.7271 19H12.2725C11.5707 19 10.9998 18.4113 10.9998 17.6875V14.3125C10.9998 13.5888 11.5707 13 12.2725 13H17.7271C18.4289 13 18.9998 13.5888 18.9998 14.3125V17.6875C18.9998 18.4113 18.4289 19 17.7271 19ZM12.2725 14.125C12.1722 14.125 12.0907 14.209 12.0907 14.3125V17.6875C12.0907 17.791 12.1722 17.875 12.2725 17.875H17.7271C17.8275 17.875 17.9089 17.791 17.9089 17.6875V14.3125C17.9089 14.209 17.8275 14.125 17.7271 14.125H12.2725Z" fill="#656864"/>
<path d="M17.6878 11.4999H12.0629C11.3391 11.4999 10.7504 10.9112 10.7504 10.1874V2.31249C10.7504 1.58875 11.3391 1 12.0629 1H17.6878C18.4116 1 19.0003 1.58875 19.0003 2.31249V10.1874C19.0003 10.9112 18.4116 11.4999 17.6878 11.4999ZM12.0629 2.12499C11.9594 2.12499 11.8754 2.20899 11.8754 2.31249V10.1874C11.8754 10.2909 11.9594 10.3749 12.0629 10.3749H17.6878C17.7913 10.3749 17.8753 10.2909 17.8753 10.1874V2.31249C17.8753 2.20899 17.7913 2.12499 17.6878 2.12499H12.0629Z" fill="#656864"/>
</svg>
