<svg width="16" height="16" viewBox="0 0 16 16" fill="none" xmlns="http://www.w3.org/2000/svg">
<g clip-path="url(#clip0_118_1136)">
<path d="M12.5703 7.42969L15.0703 9.92969L15.1416 10L15.0703 10.0703L12.5703 12.5703L12.5 12.6416L12.4297 12.5703L11.7246 11.8652L11.6533 11.7949L11.7246 11.7246L12.8447 10.5996H6.40039V9.40039H12.8447L11.7246 8.27539L11.6533 8.20508L11.7246 8.13477L12.4297 7.42969L12.5 7.3584L12.5703 7.42969Z" fill="#447ABB" stroke="#447ABB" stroke-width="0.2"/>
<path d="M7 0.900391V0.901367C7.07866 0.900987 7.15665 0.914632 7.22949 0.944336C7.30259 0.974195 7.36972 1.01861 7.42578 1.07422L10.9258 4.57422L11 4.66602C11.0217 4.69884 11.0407 4.73389 11.0557 4.77051C11.0854 4.84334 11.1 4.92134 11.0996 5V7.09961H9.90039V6.09961H7C6.70826 6.09961 6.42895 5.98363 6.22266 5.77734C6.01637 5.57105 5.90039 5.29174 5.90039 5V2.09961H2.09961V13.9004H9.90039V12.9004H11.0996V14C11.0996 14.2917 10.9836 14.5711 10.7773 14.7773C10.5711 14.9836 10.2917 15.0996 10 15.0996H2C1.70826 15.0996 1.42895 14.9836 1.22266 14.7773C1.01637 14.5711 0.900391 14.2917 0.900391 14V2C0.900393 1.70826 1.01637 1.42894 1.22266 1.22266C1.42895 1.01637 1.70826 0.900391 2 0.900391H7ZM7.09961 4.90039H9.55469L7.09961 2.44531V4.90039Z" fill="#447ABB" stroke="#447ABB" stroke-width="0.2"/>
</g>
<defs>
<clipPath id="clip0_118_1136">
<rect width="16" height="16" fill="white"/>
</clipPath>
</defs>
</svg>
