<svg width="22" height="22" viewBox="0 0 22 22" fill="none" xmlns="http://www.w3.org/2000/svg">
<path d="M2 21V11C2 9.114 2 8.172 2.586 7.586C3.172 7 4.114 7 6 7C7.886 7 8.828 7 9.414 7.586C10 8.172 10 9.114 10 11" stroke="#656864" stroke-width="1.5"/>
<path d="M16 21V15C16 13.114 16 12.172 15.414 11.586C14.828 11 13.886 11 12 11H10C8.114 11 7.172 11 6.586 11.586C6 12.172 6 13.114 6 15V21" stroke="#656864" stroke-width="1.5"/>
<path d="M20 21V6.77205C20 5.43205 20 4.76105 19.644 4.24705C19.288 3.73305 18.66 3.49705 17.404 3.02705C14.949 2.10605 13.722 1.64605 12.861 2.24205C12 2.84005 12 4.15005 12 6.77205V11.0001" stroke="#656864" stroke-width="1.5"/>
<path d="M3 7V5.5C3 4.557 3 4.086 3.293 3.793C3.586 3.5 4.057 3.5 5 3.5H7C7.943 3.5 8.414 3.5 8.707 3.793C9 4.086 9 4.557 9 5.5V7M6 3V1M21 21H1M9 14H13M9 17H13" stroke="#656864" stroke-width="1.5" stroke-linecap="round"/>
</svg>
