<svg width="18" height="18" viewBox="0 0 18 18" fill="none" xmlns="http://www.w3.org/2000/svg">
<path d="M4.15942 11.7354C3.17632 11.7354 2.37683 12.5348 2.37683 13.5179C2.37683 14.5011 3.17632 15.3005 4.15942 15.3005C5.14253 15.3005 5.94201 14.5011 5.94201 13.5179C5.94201 12.5348 5.14249 11.7354 4.15942 11.7354ZM4.15942 14.7063C3.50401 14.7063 2.97104 14.1733 2.97104 13.5179C2.97104 12.8625 3.50404 12.3296 4.15942 12.3296C4.8148 12.3296 5.34781 12.8626 5.34781 13.5179C5.34781 14.1733 4.8148 14.7063 4.15942 14.7063Z" fill="#011638"/>
<path d="M14.2609 11.7354C13.2778 11.7354 12.4783 12.5348 12.4783 13.5179C12.4783 14.5011 13.2778 15.3005 14.2609 15.3005C15.244 15.3005 16.0435 14.5011 16.0435 13.5179C16.0435 12.5348 15.244 11.7354 14.2609 11.7354ZM14.2609 14.7063C13.6054 14.7063 13.0725 14.1733 13.0725 13.5179C13.0725 12.8625 13.6055 12.3296 14.2609 12.3296C14.9163 12.3296 15.4492 12.8626 15.4492 13.5179C15.4492 14.1733 14.9163 14.7063 14.2609 14.7063Z" fill="#011638"/>
<path d="M17.7787 10.0892L15.1048 5.92983C15.0502 5.84485 14.956 5.79346 14.8549 5.79346H11.5869C11.4226 5.79346 11.2898 5.92656 11.2898 6.09054V13.518C11.2898 13.6823 11.4226 13.8151 11.5869 13.8151H12.7753V13.2209H11.884V6.38767H14.6927L17.2317 10.3373V13.2209H15.7462V13.8151H17.5288C17.6931 13.8151 17.8259 13.6823 17.8259 13.518V10.2499C17.826 10.1932 17.8096 10.137 17.7787 10.0892Z" fill="#011638"/>
<path d="M13.0723 9.65582V7.57614H15.4491V6.98193H12.7752C12.6109 6.98193 12.4781 7.11504 12.4781 7.27902V9.95291C12.4781 10.1172 12.6109 10.25 12.7752 10.25H17.2317V9.65579H13.0723V9.65582Z" fill="#011638"/>
<path d="M11.5868 3.71387H0.297087C0.133103 3.71387 0 3.84697 0 4.01095V13.5181C0 13.6824 0.133103 13.8152 0.297087 13.8152H2.67389V13.221H0.594209V4.30804H11.2898V13.221H5.64486V13.8152H11.5868C11.7511 13.8152 11.8839 13.6824 11.8839 13.5181V4.01095C11.8839 3.84697 11.7511 3.71387 11.5868 3.71387Z" fill="#011638"/>
<path d="M2.07971 12.0327H0.297119V12.6269H2.07971V12.0327Z" fill="#011638"/>
<path d="M11.2898 12.0327H6.23914V12.6269H11.2898V12.0327Z" fill="#011638"/>
<path d="M17.5287 12.0327H16.3403V12.6269H17.5287V12.0327Z" fill="#011638"/>
<path d="M11.5868 4.90234H1.18835V5.49655H11.5868V4.90234Z" fill="#011638"/>
</svg>
