<svg width="18" height="18" viewBox="0 0 18 18" fill="none" xmlns="http://www.w3.org/2000/svg">
<g clip-path="url(#clip0_108_5830)">
<path d="M11.6471 10.0588H14.2941C14.4934 10.0588 14.6838 9.96367 14.8034 9.80428C15.7867 8.49328 18 5.33453 18 3.70588C18 1.66246 16.3375 0 14.2941 0C12.2507 0 10.5882 1.66246 10.5882 3.70588C10.5882 5.17009 12.3409 7.78098 13.2007 9H11.6471C10.1874 9 9 10.1875 9 11.6471C9 13.1066 10.1874 14.2941 11.6471 14.2941H12.4412C13.171 14.2941 13.7647 14.8878 13.7647 15.6176C13.7647 16.3475 13.171 16.9412 12.4412 16.9412H4.79922C5.65885 15.7225 7.41177 13.1111 7.41177 11.6471C7.41177 9.60364 5.74931 7.94118 3.70588 7.94118C1.66246 7.94118 0 9.60364 0 11.6471C0 13.2773 2.21767 16.4403 3.19662 17.7455C3.31616 17.9048 3.50654 18 3.70588 18H12.4412C13.7548 18 14.8235 16.9313 14.8235 15.6176C14.8235 14.304 13.7548 13.2353 12.4412 13.2353H11.6471C10.7713 13.2353 10.0588 12.5228 10.0588 11.6471C10.0588 10.7713 10.7713 10.0588 11.6471 10.0588ZM11.6471 3.70588C11.6471 2.24629 12.8345 1.05882 14.2941 1.05882C15.7537 1.05882 16.9412 2.24629 16.9412 3.70588C16.9412 4.65279 15.661 6.82327 14.2941 8.71062C12.9272 6.82327 11.6471 4.65279 11.6471 3.70588ZM1.05882 11.6471C1.05882 10.1875 2.24626 9 3.70588 9C5.16551 9 6.35294 10.1875 6.35294 11.6471C6.35294 12.594 5.07272 14.7644 3.70588 16.6518C2.33901 14.7644 1.05882 12.594 1.05882 11.6471Z" fill="#011638"/>
<path d="M15.8824 3.70591C15.8824 2.83016 15.1699 2.11768 14.2942 2.11768C13.4184 2.11768 12.7059 2.83016 12.7059 3.70591C12.7059 4.58166 13.4184 5.29415 14.2942 5.29415C15.1699 5.29415 15.8824 4.5817 15.8824 3.70591ZM13.7648 3.70591C13.7648 3.41399 14.0022 3.1765 14.2942 3.1765C14.5861 3.1765 14.8236 3.41399 14.8236 3.70591C14.8236 3.99783 14.5861 4.23532 14.2942 4.23532C14.0022 4.23532 13.7648 3.99783 13.7648 3.70591Z" fill="#011638"/>
<path d="M5.29415 11.6468C5.29415 10.771 4.58166 10.0586 3.70591 10.0586C2.83012 10.0586 2.11768 10.771 2.11768 11.6468C2.11768 12.5226 2.83012 13.2351 3.70591 13.2351C4.58166 13.2351 5.29415 12.5226 5.29415 11.6468ZM3.1765 11.6468C3.1765 11.3549 3.41396 11.1174 3.70591 11.1174C3.99783 11.1174 4.23532 11.3549 4.23532 11.6468C4.23532 11.9388 3.99783 12.1762 3.70591 12.1762C3.41396 12.1762 3.1765 11.9388 3.1765 11.6468Z" fill="#011638"/>
</g>
<defs>
<clipPath id="clip0_108_5830">
<rect width="18" height="18" fill="white"/>
</clipPath>
</defs>
</svg>
