<svg width="24" height="24" viewBox="0 0 24 24" fill="none" xmlns="http://www.w3.org/2000/svg">
<path d="M13.5 6.5C13.5 6.89782 13.342 7.27936 13.0607 7.56066C12.7794 7.84196 12.3978 8 12 8C11.6022 8 11.2206 7.84196 10.9393 7.56066C10.658 7.27936 10.5 6.89782 10.5 6.5C10.5 6.10218 10.658 5.72064 10.9393 5.43934C11.2206 5.15804 11.6022 5 12 5C12.3978 5 12.7794 5.15804 13.0607 5.43934C13.342 5.72064 13.5 6.10218 13.5 6.5ZM13.5 12.5C13.5 12.8978 13.342 13.2794 13.0607 13.5607C12.7794 13.842 12.3978 14 12 14C11.6022 14 11.2206 13.842 10.9393 13.5607C10.658 13.2794 10.5 12.8978 10.5 12.5C10.5 12.1022 10.658 11.7206 10.9393 11.4393C11.2206 11.158 11.6022 11 12 11C12.3978 11 12.7794 11.158 13.0607 11.4393C13.342 11.7206 13.5 12.1022 13.5 12.5Z" stroke="#656864" stroke-width="1.5" stroke-linecap="round" stroke-linejoin="round"/>
<path d="M12 17C10.13 17 9.19604 17 8.50004 16.598C8.04402 16.3347 7.66534 15.956 7.40204 15.5C7.00004 14.804 7.00004 13.87 7.00004 12V7C7.00004 5.13 7.00004 4.196 7.40204 3.5C7.66534 3.04398 8.04402 2.66529 8.50004 2.402C9.19604 2 10.13 2 12 2C13.87 2 14.804 2 15.5 2.402C15.9561 2.66529 16.3347 3.04398 16.598 3.5C17 4.196 17 5.13 17 7V12C17 13.87 17 14.804 16.598 15.5C16.3347 15.956 15.9561 16.3347 15.5 16.598C14.804 17 13.87 17 12 17ZM12 17V22M7.00004 8L5.95604 7.123C4.64104 6.02 3.98404 5.468 4.00004 4.966C4.00704 4.762 4.07304 4.566 4.18904 4.402C4.47504 4 5.31604 4 7.00004 4M17 8L18.044 7.123C19.358 6.02 20.016 5.468 20 4.966C19.9939 4.7635 19.9281 4.56732 19.811 4.402C19.525 4 18.684 4 17 4M17 15L18.044 14.124C19.358 13.02 20.016 12.467 20 11.966C19.9939 11.7635 19.9281 11.5673 19.811 11.402C19.525 11 18.684 11 17 11M7.00004 15L5.95604 14.124C4.64104 13.02 3.98404 12.467 4.00004 11.966C4.00704 11.762 4.07304 11.566 4.18904 11.402C4.47504 11 5.31604 11 7.00004 11" stroke="#656864" stroke-width="1.5" stroke-linecap="round" stroke-linejoin="round"/>
</svg>
