<svg width="134" height="32" viewBox="0 0 134 32" fill="none" xmlns="http://www.w3.org/2000/svg">
<path d="M13.2225 29.1376L2.76735 23.1013L13.2225 17.0651L23.6781 23.1013L13.2225 29.1376ZM10.702 4.31756L1.84514 19.6586V9.43123L10.702 4.31756ZM23.0023 20.581L13.6837 15.2008C13.3985 15.0361 13.0467 15.0361 12.7613 15.2008L3.44291 20.581L13.2225 3.64202L23.0023 20.581ZM24.5996 19.6583L15.7429 4.31779L24.5996 9.43123V19.6583ZM25.9842 8.09976L13.6837 0.998461C13.3983 0.833534 13.0467 0.833534 12.7613 0.998461L0.461217 8.09976C0.175785 8.26446 0 8.56903 0 8.89865V23.1015C0 23.4311 0.175785 23.7354 0.461217 23.9004L12.7613 31.0017C12.904 31.0841 13.0632 31.1252 13.2225 31.1252C13.3817 31.1252 13.541 31.0841 13.6837 31.0017L25.9842 23.9004C26.2701 23.7354 26.445 23.4311 26.445 23.1015V8.89865C26.445 8.56903 26.2701 8.26446 25.9842 8.09976Z" fill="#447ABB"/>
<path d="M41.9288 16.8593C40.7519 13.9608 40.1787 12.4836 39.8755 11.5174H39.8575C39.5745 12.4633 38.9032 14.3869 37.9524 16.8593H41.9288ZM37.158 19.3188L36.0543 22.1892H32.8978L37.9911 9.54254H41.9267L47.2809 22.1892H43.9618L42.7865 19.3188H37.158Z" fill="#447ABB"/>
<path d="M51.3104 9.54196V16.6919C51.3104 19.3813 52.7214 20.0614 54.2755 20.0614C55.93 20.0614 57.0358 19.3492 57.0358 16.6919V9.54196H60.1049V16.7919C60.1049 20.6289 57.9481 22.4578 54.19 22.4578C50.5542 22.4578 48.2415 20.7858 48.2415 16.8606V9.54196H51.3104Z" fill="#447ABB"/>
<path d="M66.3244 11.9867H61.873V9.54254H73.8309V11.9867H69.3953V22.1892H66.3244V11.9867Z" fill="#447ABB"/>
<path d="M78.684 9.54254V22.1892H75.6151V9.54254H78.684Z" fill="#447ABB"/>
<path d="M82.1691 9.54254H85.2359V19.7295H92.3159L91.913 22.1892H82.1691V9.54254Z" fill="#447ABB"/>
<path d="M104.253 16.8532H97.1974V19.7316H105.044L104.69 22.1892H94.1281V9.54254H104.636V12.0001H97.1974V14.3956H104.253V16.8532Z" fill="#447ABB"/>
<path d="M107.306 22.1892V9.54254H110.942C114.494 14.9653 115.912 16.9385 116.705 18.442H116.741C116.618 17.1143 116.635 14.7474 116.635 12.6667V9.54254H119.446V22.1892H116.041C114.848 20.3055 110.803 14.0199 110.049 12.575H110.014C110.118 14.1361 110.118 15.9338 110.118 18.1806V22.1892H107.306Z" fill="#447ABB"/>
<path d="M125.811 11.9867H121.36V9.54254H133.318V11.9867H128.883V22.1892H125.811V11.9867Z" fill="#447ABB"/>
</svg>
